<svg width="58" height="58" viewBox="0 0 58 58" fill="none" xmlns="http://www.w3.org/2000/svg">
<path d="M52.0612 46.3811L52.0582 46.3806L33.2033 43.209L32.9729 43.1703L32.7954 43.3221L18.2687 55.748C18.2683 55.7484 18.2678 55.7488 18.2674 55.7491C17.6434 56.2748 16.8735 56.597 16.061 56.6726C15.248 56.7483 14.4313 56.5733 13.7206 56.1712C13.0099 55.7691 12.4393 55.1591 12.0855 54.4232C11.7319 53.6878 11.6117 52.8619 11.7409 52.0562C11.741 52.0557 11.7411 52.0551 11.7412 52.0546L14.9122 33.2032L14.9509 32.9728L14.7991 32.7953L2.37316 18.2686C2.37281 18.2682 2.37246 18.2678 2.3721 18.2674C1.84641 17.6433 1.52414 16.8734 1.44855 16.0609C1.37291 15.2479 1.5479 14.4312 1.95002 13.7205C2.35213 13.0098 2.96211 12.4392 3.698 12.0854L3.48134 11.6348L3.69801 12.0854C4.43339 11.7318 5.25931 11.6116 6.06496 11.7408C6.06552 11.7409 6.06608 11.741 6.06663 11.7411L24.9179 14.9121L25.1484 14.9508L25.3259 14.799L39.8526 2.37307C39.853 2.3727 39.8534 2.37234 39.8539 2.37197C40.4779 1.8463 41.2478 1.52404 42.0603 1.44845L42.0144 0.955344L42.0603 1.44845C42.8733 1.37281 43.69 1.5478 44.4007 1.94992C45.1114 2.35204 45.6819 2.96201 46.0358 3.69791C46.3894 4.43331 46.5096 5.25924 46.3803 6.06491C46.3802 6.06545 46.3802 6.06599 46.3801 6.06654L43.2091 24.9178L43.1704 25.1483L43.3222 25.3258L55.7504 39.8552L55.7525 39.8576C56.2887 40.4766 56.6189 41.2472 56.6972 42.0624C56.7756 42.8776 56.5982 43.697 56.1896 44.4068L56.1861 44.4132C55.788 45.1289 55.1769 45.7029 54.4378 46.0555C53.6986 46.4082 52.868 46.522 52.0612 46.3811Z" fill="#9747FF" stroke="black"/>
</svg>
