<svg width="13" height="7" viewBox="0 0 13 7" fill="none" xmlns="http://www.w3.org/2000/svg">
<path d="M6.5548 6.97499C6.42146 6.97499 6.29246 6.94999 6.1678 6.89999C6.04246 6.84999 5.93813 6.78332 5.8548 6.69999L1.2548 2.09999C1.07146 1.91665 0.979797 1.68332 0.979797 1.39999C0.979797 1.11665 1.07146 0.883321 1.2548 0.699987C1.43813 0.516654 1.67146 0.424988 1.9548 0.424988C2.23813 0.424988 2.47146 0.516654 2.6548 0.699987L6.5548 4.59999L10.4548 0.699987C10.6381 0.516654 10.8715 0.424988 11.1548 0.424988C11.4381 0.424988 11.6715 0.516654 11.8548 0.699987C12.0381 0.883321 12.1298 1.11665 12.1298 1.39999C12.1298 1.68332 12.0381 1.91665 11.8548 2.09999L7.2548 6.69999C7.1548 6.79999 7.04646 6.87065 6.9298 6.91199C6.81313 6.95399 6.68813 6.97499 6.5548 6.97499Z" fill="white"/>
</svg>
