<svg width="36" height="37" viewBox="0 0 36 37" fill="none" xmlns="http://www.w3.org/2000/svg">
<path d="M23.3003 20.3267L21.6349 14.1113C21.5175 13.673 21.2441 13.3299 20.8147 13.082C20.3853 12.8341 19.9514 12.7688 19.5132 12.8863L13.238 14.5677C12.7997 14.6851 12.4665 14.9555 12.2383 15.3788C12.0105 15.8036 11.9553 16.2352 12.0727 16.6735C12.1902 17.1117 12.4636 17.4548 12.893 17.7027C13.3224 17.9506 13.7562 18.0159 14.1945 17.8985L16.346 17.322L13.5241 22.2096C13.2762 22.639 13.217 23.0763 13.3466 23.5216C13.4771 23.9675 13.7571 24.3143 14.1865 24.5622C14.6159 24.8102 15.0596 24.8723 15.5176 24.7488C15.976 24.6268 16.3292 24.3511 16.5771 23.9217L19.3771 19.072L19.9696 21.2832C20.087 21.7215 20.3579 22.055 20.7822 22.2838C21.206 22.511 21.6371 22.5659 22.0753 22.4485C22.5136 22.331 22.8567 22.0576 23.1046 21.6282C23.3525 21.1988 23.4178 20.765 23.3003 20.3267ZM32.842 27.2501C31.6316 29.3466 30.096 31.0869 28.2352 32.4712C26.3755 33.856 24.3699 34.8367 22.2184 35.4132C20.0669 35.9897 17.8397 36.1432 15.5367 35.8738C13.2331 35.6054 11.033 34.8659 8.93653 33.6555C6.84003 32.4451 5.09966 30.9095 3.71541 29.0488C2.33058 27.189 1.34992 25.1834 0.773432 23.0319C0.196942 20.8804 0.0429051 18.6529 0.311323 16.3493C0.58075 14.0463 1.32067 11.8466 2.53109 9.75007C3.74151 7.65357 5.27658 5.9129 7.13632 4.52807C8.99707 3.14383 11.0032 2.16346 13.1547 1.58697C15.3062 1.01048 17.5334 0.85695 19.8364 1.12638C22.14 1.39479 24.34 2.13421 26.4365 3.34463C28.533 4.55504 30.2734 6.09063 31.6577 7.95138C33.0425 9.81112 34.0231 11.8167 34.5996 13.9682C35.1761 16.1197 35.3297 18.347 35.0602 20.6499C34.7918 22.9535 34.0524 25.1536 32.842 27.2501Z" fill="#2D5BFE"/>
</svg>
