<svg width="58" height="58" viewBox="0 0 58 58" fill="none" xmlns="http://www.w3.org/2000/svg">
<path d="M52.0612 46.3812L52.0582 46.3807L33.2033 43.2091L32.9729 43.1704L32.7954 43.3222L18.2687 55.7481C18.2683 55.7485 18.2678 55.7489 18.2674 55.7492C17.6434 56.2749 16.8735 56.5972 16.061 56.6728C15.248 56.7484 14.4313 56.5734 13.7206 56.1713C13.0099 55.7692 12.4393 55.1592 12.0855 54.4233C11.7319 53.6879 11.6117 52.862 11.7409 52.0564C11.741 52.0558 11.7411 52.0552 11.7412 52.0547L14.9122 33.2034L14.9509 32.973L14.7991 32.7954L2.37316 18.2687C2.37281 18.2683 2.37246 18.2679 2.3721 18.2675C1.84641 17.6434 1.52414 16.8735 1.44855 16.061C1.37291 15.248 1.5479 14.4313 1.95002 13.7206C2.35213 13.0099 2.96211 12.4394 3.698 12.0855L3.48134 11.6349L3.69801 12.0855C4.43339 11.7319 5.25931 11.6117 6.06496 11.741C6.06552 11.7411 6.06608 11.7411 6.06663 11.7412L24.9179 14.9122L25.1484 14.951L25.3259 14.7991L39.8526 2.37319C39.853 2.37282 39.8534 2.37246 39.8539 2.3721C40.4779 1.84642 41.2478 1.52417 42.0603 1.44858L42.0144 0.955466L42.0603 1.44858C42.8733 1.37293 43.69 1.54792 44.4007 1.95004C45.1114 2.35216 45.6819 2.96214 46.0358 3.69803C46.3894 4.43343 46.5096 5.25936 46.3803 6.06503C46.3802 6.06557 46.3802 6.06611 46.3801 6.06666L43.2091 24.918L43.1704 25.1484L43.3222 25.3259L55.7504 39.8553L55.7525 39.8577C56.2887 40.4767 56.6189 41.2473 56.6972 42.0625C56.7756 42.8777 56.5982 43.6971 56.1896 44.4069L56.1861 44.4133C55.788 45.129 55.1769 45.703 54.4378 46.0556C53.6986 46.4083 52.868 46.5221 52.0612 46.3812Z" fill="#FFD600" stroke="black"/>
</svg>
