<svg width="14" height="13" viewBox="0 0 14 13" fill="none" xmlns="http://www.w3.org/2000/svg">
<path d="M11.5 3.4L2.62502 12.3C2.42502 12.5 2.18736 12.6 1.91202 12.6C1.63736 12.6 1.40002 12.5 1.20002 12.3C1.00002 12.1 0.900024 11.8623 0.900024 11.587C0.900024 11.3123 1.00002 11.075 1.20002 10.875L10.1 2H2.50002C2.21669 2 1.97902 1.90433 1.78702 1.713C1.59569 1.521 1.50002 1.28333 1.50002 1C1.50002 0.716667 1.59569 0.479 1.78702 0.287C1.97902 0.0956668 2.21669 0 2.50002 0H12.5C12.7834 0 13.0207 0.0956668 13.212 0.287C13.404 0.479 13.5 0.716667 13.5 1V11C13.5 11.2833 13.404 11.5207 13.212 11.712C13.0207 11.904 12.7834 12 12.5 12C12.2167 12 11.9794 11.904 11.788 11.712C11.596 11.5207 11.5 11.2833 11.5 11V3.4Z" fill="white"/>
</svg>
