<svg width="16" height="16" viewBox="0 0 16 16" fill="none" xmlns="http://www.w3.org/2000/svg">
<path d="M8 0.6875C6.55373 0.6875 5.13993 1.11637 3.9374 1.91988C2.73486 2.72339 1.7976 3.86544 1.24413 5.20163C0.690668 6.53781 0.545857 8.00811 0.828011 9.4266C1.11017 10.8451 1.80661 12.148 2.82928 13.1707C3.85196 14.1934 5.15492 14.8898 6.57341 15.172C7.99189 15.4541 9.46219 15.3093 10.7984 14.7559C12.1346 14.2024 13.2766 13.2651 14.0801 12.0626C14.8836 10.8601 15.3125 9.44628 15.3125 8C15.3088 6.06175 14.5372 4.20394 13.1666 2.83339C11.7961 1.46283 9.93826 0.691217 8 0.6875ZM8 14.1875C6.77623 14.1875 5.57994 13.8246 4.56241 13.1447C3.54488 12.4648 2.75182 11.4985 2.2835 10.3679C1.81518 9.23724 1.69265 7.99314 1.93139 6.79288C2.17014 5.59262 2.75944 4.49011 3.62478 3.62478C4.49012 2.75944 5.59262 2.17014 6.79288 1.93139C7.99314 1.69264 9.23724 1.81518 10.3679 2.2835C11.4985 2.75181 12.4648 3.54488 13.1447 4.56241C13.8246 5.57994 14.1875 6.77623 14.1875 8C14.1856 9.64046 13.5331 11.2132 12.3732 12.3732C11.2132 13.5331 9.64046 14.1856 8 14.1875ZM5.75 8C5.75 8.47224 5.89859 8.9325 6.17471 9.3156C6.45083 9.6987 6.84049 9.9852 7.28849 10.1345C7.73649 10.2839 8.22013 10.2885 8.67088 10.1477C9.12164 10.0069 9.51666 9.72779 9.8 9.35C9.89063 9.2322 10.0237 9.1545 10.1709 9.13348C10.318 9.11246 10.4675 9.14979 10.5875 9.2375C10.7069 9.32701 10.7858 9.46027 10.8069 9.60795C10.8279 9.75564 10.7895 9.90565 10.7 10.025C10.275 10.5917 9.68245 11.0103 9.00632 11.2215C8.33019 11.4327 7.60474 11.4258 6.93273 11.2018C6.26073 10.9778 5.67624 10.548 5.26206 9.9734C4.84788 9.39875 4.625 8.70835 4.625 8C4.625 7.29165 4.84788 6.60125 5.26206 6.0266C5.67624 5.45196 6.26073 5.02219 6.93273 4.79819C7.60474 4.57419 8.33019 4.56731 9.00632 4.77852C9.68245 4.98972 10.275 5.40832 10.7 5.975C10.7895 6.09435 10.8279 6.24436 10.8069 6.39205C10.7858 6.53973 10.7069 6.67299 10.5875 6.7625C10.4675 6.85021 10.318 6.88754 10.1709 6.86652C10.0237 6.8455 9.89063 6.7678 9.8 6.65C9.51666 6.27221 9.12164 5.99315 8.67088 5.85234C8.22013 5.71154 7.73649 5.71613 7.28849 5.86546C6.84049 6.0148 6.45083 6.3013 6.17471 6.6844C5.89859 7.0675 5.75 7.52776 5.75 8Z" fill="white"/>
</svg>
