<svg width="64" height="64" viewBox="0 0 64 64" fill="none" xmlns="http://www.w3.org/2000/svg">
<path d="M63.6688 32C63.6755 32.9228 63.3948 33.8248 62.8656 34.5807C62.3364 35.3367 61.585 35.9092 60.7156 36.2188L42.7438 42.7438L36.2188 60.7156C35.8991 61.5768 35.3235 62.3196 34.5694 62.8441C33.8152 63.3686 32.9186 63.6497 32 63.6497C31.0814 63.6497 30.1848 63.3686 29.4306 62.8441C28.6765 62.3196 28.1009 61.5768 27.7813 60.7156L21.2563 42.7438L3.28438 36.2188C2.42318 35.8991 1.68044 35.3235 1.15594 34.5694C0.631445 33.8152 0.350311 32.9186 0.350311 32C0.350311 31.0814 0.631445 30.1848 1.15594 29.4306C1.68044 28.6765 2.42318 28.1009 3.28438 27.7813L21.2563 21.2563L27.7813 3.28438C28.1009 2.42318 28.6765 1.68044 29.4306 1.15594C30.1848 0.631445 31.0814 0.350311 32 0.350311C32.9186 0.350311 33.8152 0.631445 34.5694 1.15594C35.3235 1.68044 35.8991 2.42318 36.2188 3.28438L42.7438 21.2563L60.7156 27.7813C61.585 28.0908 62.3364 28.6633 62.8656 29.4193C63.3948 30.1752 63.6755 31.0772 63.6688 32Z" fill="white"/>
</svg>
